<svg xmlns="http://www.w3.org/2000/svg" viewBox="0 0 1440 900" width="1440" height="900">
<rect width="1440" height="900" fill="#f0f4f0"></rect>

      <g font-family="ui-sans-serif" fill="#4b5d4b" font-size="14">
        <text x="40" y="36">claude-sonnet-4.5 · reflect+revise (×3)</text>
        <text x="1400" y="36" text-anchor="end">rev 3/3</text>
      </g>
      <line x1="0" y1="570" x2="1440" y2="570" stroke="#86a386" stroke-width="2"></line>
      <circle cx="180" cy="200" r="80" fill="#fef9c3" opacity="0.7"></circle>
      <g transform="translate(720,480) scale(1.4)" stroke="#1e3a1e" stroke-width="3" fill="none" stroke-linecap="round" stroke-linejoin="round">
    
    <circle cx="-120" cy="60" r="80" fill="none"></circle>
    
    <circle cx="120" cy="60" r="80" fill="none"></circle>
    
    <path d="M-120 60 L0 -10 L120 60 M0 -10 L-30 60 L-120 60 M0 -10 L40 -40"></path>
    
    <path d="M-20 -25 L20 -25"></path>
    
    <path d="M30 -50 L60 -50"></path>
    
    <ellipse cx="0" cy="-100" rx="60" ry="42" fill="#fff"></ellipse>
    
    <circle cx="50" cy="-130" r="22" fill="#fff"></circle>
    
    <path d="M68 -125 L120 -118 L70 -110 Z" fill="#f59e0b"></path>
    
    <circle cx="55" cy="-135" r="2" fill="#1e3a1e"></circle>
    
    <path d="M-20 -68 L-20 -25 M20 -68 L20 -25"></path>
  </g>
    
</svg>