<svg xmlns="http://www.w3.org/2000/svg" viewBox="0 0 1440 900" width="1440" height="900">
<rect width="1440" height="900" fill="#fef2f2"></rect>

      <g font-family="ui-sans-serif" fill="#991b1b" font-size="14">
        <text x="40" y="36">gpt-5 · reflect+revise (×3) · 14.2KB</text>
      </g>
      <g opacity="0.4">
        <circle cx="100" cy="100" r="3" fill="#dc2626"></circle><circle cx="170" cy="160" r="3" fill="#dc2626"></circle><circle cx="240" cy="220" r="3" fill="#dc2626"></circle><circle cx="310" cy="100" r="3" fill="#dc2626"></circle><circle cx="380" cy="160" r="3" fill="#dc2626"></circle><circle cx="450" cy="220" r="3" fill="#dc2626"></circle><circle cx="520" cy="100" r="3" fill="#dc2626"></circle><circle cx="590" cy="160" r="3" fill="#dc2626"></circle><circle cx="660" cy="220" r="3" fill="#dc2626"></circle><circle cx="730" cy="100" r="3" fill="#dc2626"></circle><circle cx="800" cy="160" r="3" fill="#dc2626"></circle><circle cx="870" cy="220" r="3" fill="#dc2626"></circle><circle cx="940" cy="100" r="3" fill="#dc2626"></circle><circle cx="1010" cy="160" r="3" fill="#dc2626"></circle><circle cx="1080" cy="220" r="3" fill="#dc2626"></circle><circle cx="1150" cy="100" r="3" fill="#dc2626"></circle><circle cx="1220" cy="160" r="3" fill="#dc2626"></circle><circle cx="1290" cy="220" r="3" fill="#dc2626"></circle><circle cx="1360" cy="100" r="3" fill="#dc2626"></circle><circle cx="1430" cy="160" r="3" fill="#dc2626"></circle>
      </g>
      <g transform="translate(620,510) scale(1.2)" stroke="#7f1d1d" stroke-width="3.5" fill="none" stroke-linecap="round" stroke-linejoin="round">
    
    <circle cx="-120" cy="60" r="80" fill="none"></circle>
    
    <circle cx="120" cy="60" r="80" fill="none"></circle>
    
    <path d="M-120 60 L0 -10 L120 60 M0 -10 L-30 60 L-120 60 M0 -10 L40 -40"></path>
    
    <path d="M-20 -25 L20 -25"></path>
    
    <path d="M30 -50 L60 -50"></path>
    
    <ellipse cx="0" cy="-100" rx="60" ry="42" fill="#fee2e2"></ellipse>
    
    <circle cx="50" cy="-130" r="22" fill="#fee2e2"></circle>
    
    <path d="M68 -125 L120 -118 L70 -110 Z" fill="#dc2626"></path>
    
    <circle cx="55" cy="-135" r="2" fill="#7f1d1d"></circle>
    
    <path d="M-20 -68 L-20 -25 M20 -68 L20 -25"></path>
  </g>
      <g transform="translate(940,370) scale(0.7)" stroke="#7f1d1d" stroke-width="2" fill="none" stroke-linecap="round" stroke-linejoin="round">
    
    <circle cx="-120" cy="60" r="80" fill="none"></circle>
    
    <circle cx="120" cy="60" r="80" fill="none"></circle>
    
    <path d="M-120 60 L0 -10 L120 60 M0 -10 L-30 60 L-120 60 M0 -10 L40 -40"></path>
    
    <path d="M-20 -25 L20 -25"></path>
    
    <path d="M30 -50 L60 -50"></path>
    
    <ellipse cx="0" cy="-100" rx="60" ry="42" fill="#fecaca"></ellipse>
    
    <circle cx="50" cy="-130" r="22" fill="#fecaca"></circle>
    
    <path d="M68 -125 L120 -118 L70 -110 Z" fill="#b91c1c"></path>
    
    <circle cx="55" cy="-135" r="2" fill="#7f1d1d"></circle>
    
    <path d="M-20 -68 L-20 -25 M20 -68 L20 -25"></path>
  </g>
      <g font-family="ui-monospace" fill="#7f1d1d" font-size="11" opacity="0.6">
        <text x="1400" y="860" text-anchor="end">[14202 chars · 312 paths]</text>
      </g>
    
</svg>