<svg xmlns="http://www.w3.org/2000/svg" viewBox="0 0 1440 900" width="1440" height="900">
<rect width="1440" height="900" fill="#1c1917"></rect>

      <g font-family="ui-monospace" fill="#a8a29e" font-size="13">
        <text x="40" y="36">gpt-5 · tools (draw+inspect)</text>
      </g>
      <g transform="translate(720,480) scale(1.4)" stroke="#fafaf9" stroke-width="3" fill="none" stroke-linecap="round" stroke-linejoin="round">
    
    <circle cx="-120" cy="60" r="80" fill="#1c1917"></circle>
    
    <circle cx="120" cy="60" r="80" fill="#1c1917"></circle>
    
    <path d="M-120 60 L0 -10 L120 60 M0 -10 L-30 60 L-120 60 M0 -10 L40 -40"></path>
    
    <path d="M-20 -25 L20 -25"></path>
    
    <path d="M30 -50 L60 -50"></path>
    
    <ellipse cx="0" cy="-100" rx="60" ry="42" fill="#292524"></ellipse>
    
    <circle cx="50" cy="-130" r="22" fill="#292524"></circle>
    
    <path d="M68 -125 L120 -118 L70 -110 Z" fill="#f59e0b"></path>
    
    <circle cx="55" cy="-135" r="2" fill="#fafaf9"></circle>
    
    <path d="M-20 -68 L-20 -25 M20 -68 L20 -25"></path>
  </g>
      <g font-family="ui-monospace" fill="#78716c" font-size="11">
        <text x="40" y="870">draw_curve() ×24 · inspect() ×7</text>
      </g>
    
</svg>